# xmcd
# 
# Track frame offsets:
#     150
#     14955
#     27980
#     42180
#     53868
#     70247
#     87787
# 
# Disc length: 1406
# 
# Revision: 0
# Processed by: cddbd v1.5.2PL0 Copyright (c) Steve Scherf et al.
# Submitted via: BonkEnc v1.0.6
# 
DISCID=5a057c07
DTITLE=Andy Andrews - Seven Decisions
DYEAR=2005
DGENRE=Self-Help
TTITLE0=1
TTITLE1=2
TTITLE2=3
TTITLE3=4
TTITLE4=5
TTITLE5=6
TTITLE6=7
EXTD=Audio from dvd video package
EXTT0=
EXTT1=
EXTT2=
EXTT3=
EXTT4=
EXTT5=
EXTT6=
PLAYORDER=
